<?xml version="1.0" encoding="utf-8"?>
<!-- Generator: Adobe Illustrator 13.0.0, SVG Export Plug-In . SVG Version: 6.00 Build 14948)  -->
<!DOCTYPE svg PUBLIC "-//W3C//DTD SVG 1.0//EN" "http://www.w3.org/TR/2001/REC-SVG-20010904/DTD/svg10.dtd">
<svg version="1.0" id="Layer_1" xmlns="http://www.w3.org/2000/svg" xmlns:xlink="http://www.w3.org/1999/xlink" x="0px" y="0px"
	 width="200px" height="97.333px" viewBox="0 0 200 97.333" enable-background="new 0 0 200 97.333" xml:space="preserve">
<g>
	<g>
		<g>
			<path id="SVGID_3_" fill="#EE2E24" d="M9.899,3.934c-3.364,0-6.119,2.754-6.119,6.112V86.27c0,3.365,2.755,6.118,6.119,6.118
				h45.606c3.365,0,6.118-2.753,6.118-6.118V10.046c0-3.358-2.753-6.112-6.118-6.112H9.899z"/>
		</g>
		<g>
			<defs>
				<path id="SVGID_1_" d="M9.899,3.934c-3.364,0-6.119,2.754-6.119,6.112V86.27c0,3.365,2.755,6.118,6.119,6.118h45.606
					c3.365,0,6.118-2.753,6.118-6.118V10.046c0-3.358-2.753-6.112-6.118-6.112H9.899z"/>
			</defs>
			<clipPath id="SVGID_2_">
				<use xlink:href="#SVGID_1_"  overflow="visible"/>
			</clipPath>
			<rect x="3.781" y="3.934" clip-path="url(#SVGID_2_)" fill="#EE2E24" width="57.843" height="88.454"/>
		</g>
	</g>
</g>
<g>
	<g>
		<g>
			<path id="SVGID_9_" fill="#EE2E24" d="M73.243,3.934c-3.359,0-6.113,2.754-6.113,6.112V86.27c0,3.365,2.754,6.118,6.113,6.118
				h45.608c3.367,0,6.125-2.753,6.125-6.118V10.046c0-3.358-2.758-6.112-6.125-6.112H73.243z"/>
		</g>
		<g>
			<defs>
				<path id="SVGID_4_" d="M73.243,3.934c-3.359,0-6.113,2.754-6.113,6.112V86.27c0,3.365,2.754,6.118,6.113,6.118h45.608
					c3.367,0,6.125-2.753,6.125-6.118V10.046c0-3.358-2.758-6.112-6.125-6.112H73.243z"/>
			</defs>
			<clipPath id="SVGID_5_">
				<use xlink:href="#SVGID_4_"  overflow="visible"/>
			</clipPath>
			<rect x="67.129" y="3.934" clip-path="url(#SVGID_5_)" fill="#EE2E24" width="57.848" height="88.454"/>
		</g>
	</g>
</g>
<g>
	<g>
		<g>
			<path id="SVGID_15_" fill="#EE2E24" d="M136.598,3.934c-3.367,0-6.121,2.754-6.121,6.112V86.27c0,3.365,2.754,6.118,6.121,6.118
				h45.61c3.356,0,6.118-2.753,6.118-6.118V10.046c0-3.358-2.762-6.112-6.118-6.112H136.598z"/>
		</g>
		<g>
			<defs>
				<path id="SVGID_6_" d="M136.598,3.934c-3.367,0-6.121,2.754-6.121,6.112V86.27c0,3.365,2.754,6.118,6.121,6.118h45.61
					c3.356,0,6.118-2.753,6.118-6.118V10.046c0-3.358-2.762-6.112-6.118-6.112H136.598z"/>
			</defs>
			<clipPath id="SVGID_7_">
				<use xlink:href="#SVGID_6_"  overflow="visible"/>
			</clipPath>
			<rect x="130.477" y="3.934" clip-path="url(#SVGID_7_)" fill="#EE2E24" width="57.851" height="88.454"/>
		</g>
	</g>
</g>
<path fill="#4D4D4F" d="M195.111,91.474l0.943-2.466h0.909v3.354h-0.597v-2.733h-0.006l-1.057,2.733H194.9l-1.059-2.733l0,0v2.733
	h-0.598v-3.354h0.908L195.111,91.474z M192.65,89.5h-1.029v2.863h-0.6V89.5h-1.033v-0.49h2.662V89.5z"/>
<path fill="#FFFFFF" d="M48.775,28.327H15.027c-0.389,0-0.714,0.318-0.714,0.707v6.669c0,0.393,0.325,0.713,0.714,0.713h9.999
	c1.683,0,3.034,1.357,3.034,3.034v30.125c0,0.395,0.318,0.713,0.713,0.713h6.669c0.396,0,0.712-0.318,0.712-0.713V39.449
	c0-1.677,1.357-3.034,3.035-3.034h9.585c0.395,0,0.722-0.32,0.722-0.713v-6.669C49.498,28.645,49.17,28.327,48.775,28.327"/>
<path fill="#FFFFFF" d="M108.241,62.193H95.94c-2.148,0-3.881-1.735-3.881-3.878V29.033c0-0.388-0.317-0.707-0.712-0.707h-6.662
	c-0.394,0-0.715,0.318-0.715,0.707v31.852c0,5.314,2.762,9.404,9.146,9.404h15.125c0.401,0,0.711-0.322,0.711-0.718v-6.657
	C108.952,62.523,108.643,62.193,108.241,62.193"/>
<path fill="#FFFFFF" d="M175.468,63.754l-4.716-4.711c-0.277-0.273-0.756-0.273-1.038,0l0.007-0.012
	c-2.303,2.061-5.355,3.322-8.688,3.322c-7.205,0-13.054-5.85-13.054-13.042c0-7.208,5.849-13.041,13.054-13.041
	c3.333,0,6.382,1.257,8.688,3.314l-0.007-0.007c0.282,0.281,0.761,0.281,1.038,0.007l4.716-4.718
	c0.248-0.258,0.259-0.659,0.036-0.943c-3.785-3.566-8.87-5.754-14.473-5.754c-11.678,0-21.143,9.464-21.143,21.142
	c0,11.66,9.465,21.129,21.143,21.129c5.603,0,10.699-2.192,14.473-5.747C175.727,64.42,175.716,64.01,175.468,63.754"/>
</svg>
